<svg width="15" height="19" viewBox="0 0 15 19" fill="none" xmlns="http://www.w3.org/2000/svg">
<path d="M11.7489 5.07187L2.23132 14.7094C1.78692 15.1594 1.02773 15.0562 0.759237 14.4844C0.277801 13.4812 4.94707e-05 12.3469 4.94707e-05 11.1562C-0.0184673 5.98124 5.16623 1.55625 6.92532 0.196875C7.26788 -0.0656249 7.7308 -0.0656249 8.0641 0.196875C8.86958 0.815624 10.3787 2.1 11.7952 3.7875C12.11 4.1625 12.0915 4.725 11.7489 5.07187Z" fill="#292D32"/>
<path opacity="0.4" d="M14.9986 11.1654C14.9986 15.3466 11.6378 18.7497 7.4993 18.7497C5.84205 18.7497 4.2959 18.206 3.04602 17.2685C2.59236 16.931 2.55533 16.256 2.95344 15.8529L12.2766 6.41226C12.7118 5.97163 13.4432 6.06538 13.7395 6.60913C14.4986 8.02476 15.0079 9.56226 14.9986 11.1654Z" fill="#292D32"/>
</svg>
