<svg width="88" height="18" viewBox="0 0 88 18" fill="none" xmlns="http://www.w3.org/2000/svg">
<path d="M0.5 0.5H3.03114L5.47058 10.0353H5.50726L8.42358 0.5H10.6979L13.5592 10.0353H13.5959L16.1454 0.5H18.4931L14.7148 13.7372H12.5138L9.50574 3.65972H9.46905L6.46103 13.7372H4.3334L0.5 0.5Z" fill="#292D32"/>
<path d="M24.5704 12.5032H24.5153C24.1974 13.0142 23.7939 13.3882 23.3048 13.625C22.8157 13.8494 22.2777 13.9615 21.6907 13.9615C21.2872 13.9615 20.8898 13.9054 20.4985 13.7933C20.1195 13.6811 19.7771 13.5128 19.4714 13.2885C19.1779 13.0641 18.9395 12.7837 18.7561 12.4471C18.5727 12.1106 18.481 11.7179 18.481 11.2692C18.481 10.7831 18.5665 10.3718 18.7377 10.0353C18.9089 9.68625 19.1351 9.39957 19.4164 9.17521C19.7098 8.93839 20.0461 8.75142 20.4252 8.61432C20.8042 8.47721 21.1955 8.37749 21.599 8.31517C22.0148 8.24039 22.4305 8.19676 22.8463 8.18429C23.262 8.15937 23.6533 8.1469 24.0201 8.1469H24.5704V7.90385C24.5704 7.34295 24.3808 6.92539 24.0018 6.65118C23.6227 6.36449 23.1397 6.22115 22.5528 6.22115C22.0881 6.22115 21.6541 6.3084 21.2505 6.48291C20.847 6.64494 20.4985 6.8693 20.2051 7.15598L19.0495 5.9781C19.5387 5.46706 20.1072 5.09936 20.7553 4.875C21.4156 4.65064 22.0943 4.53846 22.7912 4.53846C23.4148 4.53846 23.9406 4.61325 24.3686 4.76282C24.7966 4.89993 25.1512 5.08066 25.4324 5.30502C25.7137 5.52938 25.9277 5.79113 26.0744 6.09028C26.2333 6.37696 26.3434 6.66987 26.4045 6.96902C26.4779 7.26816 26.5207 7.56108 26.5329 7.84776C26.5452 8.12197 26.5513 8.36503 26.5513 8.57692V13.7372H24.5704V12.5032ZM24.442 9.71741H23.9834C23.6777 9.71741 23.3354 9.72988 22.9563 9.75481C22.5772 9.77974 22.2165 9.84206 21.8742 9.94177C21.544 10.029 21.2628 10.1661 21.0304 10.3531C20.7981 10.5276 20.6819 10.7769 20.6819 11.101C20.6819 11.3129 20.7247 11.4936 20.8103 11.6432C20.9082 11.7803 21.0304 11.8987 21.1772 11.9984C21.3239 12.0981 21.489 12.1729 21.6724 12.2228C21.8558 12.2601 22.0392 12.2788 22.2226 12.2788C22.9808 12.2788 23.5371 12.0981 23.8917 11.7366C24.2586 11.3627 24.442 10.8579 24.442 10.2222V9.71741Z" fill="#292D32"/>
<path d="M27.8922 6.66987V4.76282H29.708V2.164H31.909V4.76282H34.3301V6.66987H31.909V10.5962C31.909 11.0449 31.9885 11.4001 32.1475 11.6619C32.3187 11.9236 32.6488 12.0545 33.1379 12.0545C33.3336 12.0545 33.5475 12.0358 33.7799 11.9984C34.0122 11.9485 34.1956 11.8738 34.3301 11.774V13.6624C34.0978 13.7746 33.8104 13.8494 33.4681 13.8868C33.1379 13.9366 32.8444 13.9615 32.5877 13.9615C32.0007 13.9615 31.5177 13.893 31.1387 13.7559C30.7718 13.6312 30.4784 13.438 30.2583 13.1763C30.0504 12.9021 29.9037 12.5655 29.8181 12.1667C29.7447 11.7678 29.708 11.3066 29.708 10.7831V6.66987H27.8922Z" fill="#292D32"/>
<path d="M37.809 10.0353C37.8824 10.7083 38.1392 11.2318 38.5794 11.6058C39.0196 11.9797 39.5515 12.1667 40.1751 12.1667C40.7253 12.1667 41.1839 12.0545 41.5507 11.8301C41.9298 11.5933 42.2599 11.3004 42.5411 10.9514L44.1185 12.1667C43.605 12.8148 43.0303 13.276 42.3944 13.5502C41.7586 13.8244 41.0922 13.9615 40.3952 13.9615C39.7349 13.9615 39.1113 13.8494 38.5243 13.625C37.9374 13.4006 37.43 13.0828 37.002 12.6715C36.574 12.2602 36.2316 11.7678 35.9748 11.1944C35.7303 10.6086 35.608 9.96047 35.608 9.25C35.608 8.53953 35.7303 7.89761 35.9748 7.32425C36.2316 6.73843 36.574 6.23985 37.002 5.82853C37.43 5.4172 37.9374 5.09936 38.5243 4.875C39.1113 4.65064 39.7349 4.53846 40.3952 4.53846C41.0066 4.53846 41.5629 4.65064 42.0643 4.875C42.5778 5.08689 43.0119 5.3985 43.3665 5.80983C43.7334 6.22115 44.0146 6.73219 44.2102 7.34295C44.4181 7.94124 44.522 8.63301 44.522 9.41827V10.0353H37.809ZM42.321 8.35256C42.3088 7.69195 42.1071 7.17468 41.7158 6.80075C41.3245 6.41435 40.7804 6.22115 40.0834 6.22115C39.4231 6.22115 38.8973 6.41435 38.506 6.80075C38.1269 7.18714 37.8946 7.70442 37.809 8.35256H42.321Z" fill="#292D32"/>
<path d="M46.5803 4.76282H48.7813V6.18376H48.818C49.0625 5.66026 49.411 5.25516 49.8635 4.96848C50.3159 4.6818 50.8356 4.53846 51.4225 4.53846C51.557 4.53846 51.6854 4.55093 51.8077 4.57585C51.9422 4.60078 52.0767 4.63194 52.2112 4.66934V6.83814C52.0278 6.78828 51.8444 6.75089 51.6609 6.72596C51.4898 6.68857 51.3186 6.66987 51.1474 6.66987C50.6338 6.66987 50.2181 6.76959 49.9002 6.96902C49.5945 7.15598 49.356 7.37411 49.1848 7.6234C49.0259 7.87268 48.9158 8.12197 48.8547 8.37126C48.8058 8.62055 48.7813 8.80751 48.7813 8.93216V13.7372H46.5803V4.76282Z" fill="#292D32"/>
<path d="M58.1112 0.5H60.1104L65.7046 13.7372H63.0634L61.8529 10.7083H56.222L55.0481 13.7372H52.462L58.1112 0.5ZM61.0458 8.6891L59.0466 3.30449L57.0107 8.6891H61.0458Z" fill="#292D32"/>
<path d="M66.946 4.76282H69.0369V6.10897H69.0736C69.3915 5.56054 69.8195 5.16168 70.3575 4.91239C70.8955 4.66311 71.4764 4.53846 72.1 4.53846C72.7725 4.53846 73.3778 4.66311 73.9158 4.91239C74.4538 5.14922 74.9123 5.47952 75.2914 5.90331C75.6705 6.3271 75.9578 6.82568 76.1535 7.39904C76.3491 7.9724 76.4469 8.58939 76.4469 9.25C76.4469 9.91061 76.343 10.5276 76.1351 11.101C75.9272 11.6743 75.6338 12.1729 75.2547 12.5967C74.8879 13.0205 74.4416 13.357 73.9158 13.6063C73.39 13.8431 72.8153 13.9615 72.1917 13.9615C71.7759 13.9615 71.4091 13.9179 71.0912 13.8307C70.7732 13.7434 70.492 13.6312 70.2475 13.4941C70.0029 13.357 69.795 13.2137 69.6238 13.0641C69.4527 12.9021 69.312 12.7463 69.202 12.5967H69.147V18H66.946V4.76282ZM74.2459 9.25C74.2459 8.901 74.1848 8.56446 74.0625 8.24039C73.9525 7.91631 73.7813 7.62963 73.549 7.38034C73.3288 7.13105 73.0598 6.93162 72.7419 6.78205C72.424 6.63248 72.0633 6.55769 71.6598 6.55769C71.2562 6.55769 70.8955 6.63248 70.5776 6.78205C70.2597 6.93162 69.9846 7.13105 69.7522 7.38034C69.5321 7.62963 69.3609 7.91631 69.2387 8.24039C69.1286 8.56446 69.0736 8.901 69.0736 9.25C69.0736 9.599 69.1286 9.93554 69.2387 10.2596C69.3609 10.5837 69.5321 10.8704 69.7522 11.1197C69.9846 11.3689 70.2597 11.5684 70.5776 11.7179C70.8955 11.8675 71.2562 11.9423 71.6598 11.9423C72.0633 11.9423 72.424 11.8675 72.7419 11.7179C73.0598 11.5684 73.3288 11.3689 73.549 11.1197C73.7813 10.8704 73.9525 10.5837 74.0625 10.2596C74.1848 9.93554 74.2459 9.599 74.2459 9.25Z" fill="#292D32"/>
<path d="M78.499 4.76282H80.59V6.10897H80.6267C80.9446 5.56054 81.3726 5.16168 81.9106 4.91239C82.4486 4.66311 83.0294 4.53846 83.653 4.53846C84.3256 4.53846 84.9308 4.66311 85.4689 4.91239C86.0069 5.14922 86.4654 5.47952 86.8445 5.90331C87.2235 6.3271 87.5109 6.82568 87.7065 7.39904C87.9022 7.9724 88 8.58939 88 9.25C88 9.91061 87.8961 10.5276 87.6882 11.101C87.4803 11.6743 87.1869 12.1729 86.8078 12.5967C86.441 13.0205 85.9947 13.357 85.4689 13.6063C84.9431 13.8431 84.3684 13.9615 83.7447 13.9615C83.329 13.9615 82.9622 13.9179 82.6442 13.8307C82.3263 13.7434 82.0451 13.6312 81.8005 13.4941C81.556 13.357 81.3481 13.2137 81.1769 13.0641C81.0057 12.9021 80.8651 12.7463 80.7551 12.5967H80.7V18H78.499V4.76282ZM85.799 9.25C85.799 8.901 85.7379 8.56446 85.6156 8.24039C85.5055 7.91631 85.3344 7.62963 85.102 7.38034C84.8819 7.13105 84.6129 6.93162 84.295 6.78205C83.9771 6.63248 83.6164 6.55769 83.2128 6.55769C82.8093 6.55769 82.4486 6.63248 82.1307 6.78205C81.8128 6.93162 81.5376 7.13105 81.3053 7.38034C81.0852 7.62963 80.914 7.91631 80.7917 8.24039C80.6817 8.56446 80.6267 8.901 80.6267 9.25C80.6267 9.599 80.6817 9.93554 80.7917 10.2596C80.914 10.5837 81.0852 10.8704 81.3053 11.1197C81.5376 11.3689 81.8128 11.5684 82.1307 11.7179C82.4486 11.8675 82.8093 11.9423 83.2128 11.9423C83.6164 11.9423 83.9771 11.8675 84.295 11.7179C84.6129 11.5684 84.8819 11.3689 85.102 11.1197C85.3344 10.8704 85.5055 10.5837 85.6156 10.2596C85.7379 9.93554 85.799 9.599 85.799 9.25Z" fill="#292D32"/>
</svg>
