<svg width="34" height="34" viewBox="0 0 34 34" fill="none" xmlns="http://www.w3.org/2000/svg">
<path d="M17.0001 1.7406C25.4276 1.7406 32.2595 8.57246 32.2595 17C32.2595 25.4275 25.4276 32.2593 17.0001 32.2593C8.57258 32.2593 1.74072 25.4275 1.74072 17C1.74072 8.57246 8.57258 1.7406 17.0001 1.7406Z" stroke="#727272" stroke-width="1.7" stroke-linecap="round"/>
<path d="M17 1.7406V4.79247" stroke="#727272" stroke-width="1.7" stroke-linecap="round"/>
<path d="M17 29.2074V32.2593" stroke="#727272" stroke-width="1.7" stroke-linecap="round"/>
<path d="M32.2595 17L29.2076 17" stroke="#727272" stroke-width="1.7" stroke-linecap="round"/>
<path d="M4.79272 17L1.74085 17" stroke="#727272" stroke-width="1.7" stroke-linecap="round"/>
<path d="M14.4696 17.4833L17.0001 12.4221L19.5307 17.4833C20.4713 19.3644 19.1033 21.5778 17.0001 21.5778C14.8969 21.5778 13.529 19.3644 14.4696 17.4833Z" fill="white"/>
</svg>
